<svg xmlns="http://www.w3.org/2000/svg" xmlns:xlink="http://www.w3.org/1999/xlink" width="500" zoomAndPan="magnify" viewBox="0 0 375 374.999991" height="500" preserveAspectRatio="xMidYMid meet" version="1.0"><defs><g/><clipPath id="cc201bbdfc"><path d="M 37 33 L 340 33 L 340 247 L 37 247 Z M 37 33 " clip-rule="nonzero"/></clipPath><clipPath id="16a468e0d4"><path d="M -40.789062 283.34375 L 113.988281 -49.148438 L 415.882812 91.382812 L 261.105469 423.875 Z M -40.789062 283.34375 " clip-rule="nonzero"/></clipPath><clipPath id="5181470a8c"><path d="M -40.789062 283.34375 L 113.988281 -49.148438 L 415.882812 91.382812 L 261.105469 423.875 Z M -40.789062 283.34375 " clip-rule="nonzero"/></clipPath><clipPath id="41224efd81"><path d="M 15 116 L 333 116 L 333 345 L 15 345 Z M 15 116 " clip-rule="nonzero"/></clipPath><clipPath id="13d44ac140"><path d="M -40.789062 283.34375 L 113.988281 -49.148438 L 415.882812 91.382812 L 261.105469 423.875 Z M -40.789062 283.34375 " clip-rule="nonzero"/></clipPath><clipPath id="eddecd24f1"><path d="M -40.789062 283.34375 L 113.988281 -49.148438 L 415.882812 91.382812 L 261.105469 423.875 Z M -40.789062 283.34375 " clip-rule="nonzero"/></clipPath><clipPath id="816150815f"><path d="M 151 124 L 294 124 L 294 298 L 151 298 Z M 151 124 " clip-rule="nonzero"/></clipPath><clipPath id="d564cfdea2"><path d="M -40.789062 283.34375 L 113.988281 -49.148438 L 415.882812 91.382812 L 261.105469 423.875 Z M -40.789062 283.34375 " clip-rule="nonzero"/></clipPath><clipPath id="dfcccdb6db"><path d="M -40.789062 283.34375 L 113.988281 -49.148438 L 415.882812 91.382812 L 261.105469 423.875 Z M -40.789062 283.34375 " clip-rule="nonzero"/></clipPath><clipPath id="5abdb3b890"><path d="M 101 144 L 179 144 L 179 186 L 101 186 Z M 101 144 " clip-rule="nonzero"/></clipPath><clipPath id="4783f1972b"><path d="M -40.789062 283.34375 L 113.988281 -49.148438 L 415.882812 91.382812 L 261.105469 423.875 Z M -40.789062 283.34375 " clip-rule="nonzero"/></clipPath><clipPath id="9e1705b13b"><path d="M -40.789062 283.34375 L 113.988281 -49.148438 L 415.882812 91.382812 L 261.105469 423.875 Z M -40.789062 283.34375 " clip-rule="nonzero"/></clipPath><clipPath id="339b4af0c0"><path d="M 104 169 L 173 169 L 173 195 L 104 195 Z M 104 169 " clip-rule="nonzero"/></clipPath><clipPath id="fed7a3ad43"><path d="M -40.789062 283.34375 L 113.988281 -49.148438 L 415.882812 91.382812 L 261.105469 423.875 Z M -40.789062 283.34375 " clip-rule="nonzero"/></clipPath><clipPath id="edfab7256b"><path d="M -40.789062 283.34375 L 113.988281 -49.148438 L 415.882812 91.382812 L 261.105469 423.875 Z M -40.789062 283.34375 " clip-rule="nonzero"/></clipPath><clipPath id="eaf046c85b"><path d="M 71 77 L 309 77 L 309 300 L 71 300 Z M 71 77 " clip-rule="nonzero"/></clipPath><clipPath id="7501d1443f"><path d="M 64.914062 206.585938 L 145.503906 68.523438 L 318.882812 169.726562 L 238.292969 307.789062 Z M 64.914062 206.585938 " clip-rule="nonzero"/></clipPath><clipPath id="992c92c067"><path d="M 73.609375 191.6875 L 135.398438 85.832031 C 140.203125 77.605469 150.765625 74.828125 158.992188 79.632812 L 299.964844 161.917969 C 308.195312 166.722656 310.972656 177.285156 306.167969 185.511719 L 244.378906 291.367188 C 239.578125 299.597656 229.011719 302.371094 220.785156 297.570312 L 79.8125 215.28125 C 71.582031 210.480469 68.808594 199.914062 73.609375 191.6875 " clip-rule="nonzero"/></clipPath><clipPath id="b822b30704"><path d="M 249.617188 115.625 L 357.429688 115.625 L 357.429688 265 L 249.617188 265 Z M 249.617188 115.625 " clip-rule="nonzero"/></clipPath><clipPath id="9623d49c0d"><path d="M 303.519531 115.625 C 273.75 115.625 249.617188 149.140625 249.617188 190.488281 C 249.617188 231.835938 273.75 265.351562 303.519531 265.351562 C 333.289062 265.351562 357.421875 231.835938 357.421875 190.488281 C 357.421875 149.140625 333.289062 115.625 303.519531 115.625 " clip-rule="nonzero"/></clipPath></defs><rect x="-37.5" width="450" fill="#ffffff" y="-37.499999" height="449.999989" fill-opacity="1"/><rect x="-37.5" width="450" fill="#ffffff" y="-37.499999" height="449.999989" fill-opacity="1"/><rect x="-37.5" width="450" fill="#f8f8f8" y="-37.499999" height="449.999989" fill-opacity="1"/><g clip-path="url(#cc201bbdfc)"><g clip-path="url(#16a468e0d4)"><g clip-path="url(#5181470a8c)"><path fill="#545454" d="M 332.757812 90.597656 C 332.179688 92.960938 331.027344 95.101562 329.414062 97.019531 C 332.125 79.496094 305.191406 55.765625 278.9375 46.832031 C 262.839844 41.351562 250.578125 42.660156 242.054688 48.246094 C 249.855469 40.355469 262.625 37.132812 280.734375 42.121094 C 308.015625 49.636719 337.085938 72.933594 332.757812 90.597656 Z M 234.390625 49.988281 C 231.480469 49.226562 228.539062 49.613281 226.042969 50.863281 C 217.449219 48.390625 208.511719 46.667969 199.289062 45.773438 C 118.050781 37.898438 45.769531 97.410156 37.847656 178.695312 C 35.929688 198.40625 37.964844 217.585938 43.320312 235.449219 C 45.433594 234.578125 47.769531 234.207031 50.132812 234.4375 C 51.644531 234.582031 53.121094 234.964844 54.519531 235.578125 L 80.148438 246.792969 C 71.140625 227.105469 67.050781 204.851562 69.304688 181.746094 C 76.105469 111.960938 138.15625 60.871094 207.898438 67.632812 C 212.273438 68.054688 216.570312 68.695312 220.785156 69.542969 C 222.34375 72.054688 224.828125 74 227.917969 74.804688 C 228.449219 90.730469 238.699219 104.742188 262.53125 110.953125 C 292.628906 118.796875 332.988281 111.230469 338.4375 90.351562 C 343.886719 69.464844 312.359375 43.175781 282.257812 35.332031 C 258.425781 29.121094 242.636719 36.34375 234.390625 49.988281 " fill-opacity="1" fill-rule="nonzero"/></g></g></g><g clip-path="url(#41224efd81)"><g clip-path="url(#13d44ac140)"><g clip-path="url(#eddecd24f1)"><path fill="#545454" d="M 90.269531 337.90625 L 24.433594 309.808594 C 20.597656 308.183594 18.632812 303.808594 20.148438 299.929688 C 20.878906 298.0625 22.25 296.652344 23.90625 295.84375 C 23.90625 295.84375 20.050781 302.246094 27.972656 305.816406 L 93.273438 335.148438 C 102.007812 339.070312 111.679688 338.191406 119.335938 333.636719 C 111.460938 340.148438 100.324219 342.160156 90.269531 337.90625 Z M 297.804688 118.722656 C 315.691406 143.039062 325.023438 173.796875 321.859375 206.226562 C 315.0625 276.011719 253.007812 327.101562 183.265625 320.34375 C 168.914062 318.953125 155.355469 315.210938 142.925781 309.550781 C 142.085938 308.617188 141.039062 307.839844 139.808594 307.304688 C 142.65625 292.132812 134.8125 276.460938 120.078125 270.015625 L 52.40625 240.40625 C 47.695312 238.347656 42.195312 240.570312 40.25 245.367188 C 38.375 249.992188 40.667969 255.269531 45.238281 257.265625 L 87.546875 275.777344 C 90.542969 277.089844 91.875 280.628906 90.441406 283.605469 C 89.082031 286.441406 85.648438 287.609375 82.769531 286.347656 L 40.414062 267.816406 C 35.707031 265.757812 30.203125 267.980469 28.257812 272.777344 C 26.382812 277.402344 28.675781 282.675781 33.246094 284.675781 L 75.554688 303.1875 C 78.550781 304.496094 79.878906 308.039062 78.449219 311.015625 C 77.085938 313.847656 73.65625 315.015625 70.777344 313.757812 L 28.421875 295.226562 C 23.714844 293.167969 18.210938 295.386719 16.265625 300.1875 C 14.390625 304.8125 16.683594 310.085938 21.253906 312.085938 L 88.75 341.617188 C 103.484375 348.0625 120.316406 343.1875 129.527344 330.800781 C 130.75 331.335938 132.03125 331.578125 133.28125 331.566406 C 145.03125 335.9375 157.53125 338.871094 170.597656 340.140625 C 251.835938 348.011719 324.117188 288.5 332.039062 207.214844 C 335.253906 174.230469 327.378906 142.734375 311.453125 116.414062 C 307.140625 117.484375 302.542969 118.257812 297.804688 118.722656 " fill-opacity="1" fill-rule="nonzero"/></g></g></g><g clip-path="url(#816150815f)"><g clip-path="url(#d564cfdea2)"><g clip-path="url(#dfcccdb6db)"><path fill="#545454" d="M 210.339844 147.835938 L 211.308594 144.597656 C 214.191406 134.976562 224.324219 129.507812 233.9375 132.386719 C 243.554688 135.265625 249.011719 145.402344 246.128906 155.019531 L 241.160156 171.597656 C 232.867188 162.804688 222.445312 154.652344 210.339844 147.835938 Z M 246.335938 177.511719 L 252.507812 156.929688 C 256.4375 143.804688 248.96875 129.929688 235.851562 126.003906 C 222.734375 122.078125 208.863281 129.5625 204.933594 142.6875 L 204.347656 144.640625 C 202.964844 143.941406 201.566406 143.261719 200.144531 142.601562 L 159.636719 229.621094 C 174.882812 237.203125 204.402344 248.714844 236.832031 244.519531 C 236.832031 244.519531 203.726562 257.707031 155.113281 239.339844 L 151.871094 246.308594 C 185.53125 261.976562 220.316406 263.035156 241.769531 251.242188 C 242.054688 253.183594 243.90625 255.316406 246.636719 256.589844 C 246.726562 256.632812 246.816406 256.664062 246.90625 256.703125 C 237.320312 279.722656 232.128906 296.625 234.695312 297.820312 C 238.101562 299.40625 253.890625 272.699219 269.964844 238.175781 C 286.035156 203.648438 296.304688 174.371094 292.894531 172.785156 C 290.332031 171.59375 280.734375 186.460938 269.28125 208.625 C 269.199219 208.585938 269.113281 208.539062 269.023438 208.5 C 266.292969 207.226562 263.46875 207.1875 261.800781 208.21875 C 259.765625 198.015625 254.40625 187.472656 246.335938 177.511719 " fill-opacity="1" fill-rule="nonzero"/></g></g></g><g clip-path="url(#5abdb3b890)"><g clip-path="url(#4783f1972b)"><g clip-path="url(#9e1705b13b)"><path fill="#545454" d="M 101.296875 144.789062 C 101.296875 144.789062 107.339844 167.925781 142.398438 168.535156 C 174.160156 169.089844 178.484375 185.332031 178.484375 185.332031 C 178.484375 185.332031 177.914062 163.179688 149.21875 160.335938 C 120.523438 157.492188 113.761719 160.730469 101.296875 144.789062 " fill-opacity="1" fill-rule="nonzero"/></g></g></g><g clip-path="url(#339b4af0c0)"><g clip-path="url(#fed7a3ad43)"><g clip-path="url(#edfab7256b)"><path fill="#545454" d="M 172.21875 194.265625 C 169.039062 189.476562 160.3125 181.207031 137.804688 180.816406 C 121.117188 180.523438 111.003906 175.128906 104.988281 169.554688 C 110.03125 176.3125 120.617188 184.972656 141.890625 185.34375 C 158.171875 185.628906 167.242188 190.035156 172.21875 194.265625 " fill-opacity="1" fill-rule="nonzero"/></g></g></g><g clip-path="url(#eaf046c85b)"><g clip-path="url(#7501d1443f)"><g clip-path="url(#992c92c067)"><path fill="#f8f8f8" d="M 64.914062 206.585938 L 143.628906 71.734375 L 313.796875 171.066406 L 235.082031 305.914062 Z M 64.914062 206.585938 " fill-opacity="1" fill-rule="nonzero"/></g></g></g><g clip-path="url(#b822b30704)"><g clip-path="url(#9623d49c0d)"><path fill="#f8f8f8" d="M 249.617188 115.625 L 357.429688 115.625 L 357.429688 264.332031 L 249.617188 264.332031 Z M 249.617188 115.625 " fill-opacity="1" fill-rule="nonzero"/></g></g><g fill="#ffa800" fill-opacity="1"><g transform="translate(139.851103, 255.749983)"><g><path d="M 48.214844 2.554688 C 77.175781 2.554688 95.066406 -11.246094 95.578125 -32.371094 C 95.917969 -48.554688 86.035156 -58.097656 72.917969 -64.742188 C 58.4375 -72.066406 46.339844 -73.941406 46.339844 -81.949219 C 46.339844 -85.695312 50.089844 -87.570312 55.882812 -87.570312 C 63.378906 -87.570312 69.171875 -84.332031 73.429688 -78.03125 L 97.28125 -94.894531 C 89.445312 -109.546875 74.792969 -116.703125 54.519531 -116.703125 C 28.28125 -116.703125 13.289062 -103.753906 12.605469 -82.800781 C 12.097656 -67.464844 18.230469 -57.414062 32.539062 -49.746094 C 45.828125 -42.59375 61.503906 -40.71875 61.503906 -33.902344 C 61.503906 -29.304688 56.5625 -26.578125 48.894531 -26.75 C 39.015625 -26.917969 30.496094 -31.6875 24.363281 -40.207031 L 1.703125 -20.273438 C 10.902344 -4.429688 26.066406 2.554688 48.214844 2.554688 Z M 48.214844 2.554688 "/></g></g></g></svg>