<?xml version="1.0" encoding="utf-8"?>
<!-- Generator: Adobe Illustrator 25.4.1, SVG Export Plug-In . SVG Version: 6.00 Build 0)  -->
<svg version="1.1" id="Capa_1" xmlns="http://www.w3.org/2000/svg" xmlns:xlink="http://www.w3.org/1999/xlink" x="0px" y="0px"
	 viewBox="0 0 500 250" style="enable-background:new 0 0 500 250;" xml:space="preserve">
<style type="text/css">
	.st0{clip-path:url(#SVGID_00000143576826487577858480000009288479701798738842_);}
	.st1{clip-path:url(#SVGID_00000116223917243009676290000001886166752008689842_);}
	.st2{clip-path:url(#SVGID_00000106828438959912299060000004665178822316881838_);}
	.st3{fill:#545454;}
	.st4{clip-path:url(#SVGID_00000141452942433678267060000002905718223513218477_);}
	.st5{clip-path:url(#SVGID_00000050657752019678463200000002540280638219799182_);}
	.st6{clip-path:url(#SVGID_00000157282216633247429740000017826211731522922924_);}
</style>
<g>
	<defs>
		<rect id="SVGID_1_" x="37.3" y="32" width="181.3" height="129.3"/>
	</defs>
	<clipPath id="SVGID_00000034066160607724500830000008166091866994262937_">
		<use xlink:href="#SVGID_1_"  style="overflow:visible;"/>
	</clipPath>
	<g style="clip-path:url(#SVGID_00000034066160607724500830000008166091866994262937_);">
		<g>
			<defs>
				
					<rect id="SVGID_00000114047035560489976740000010465470670273486980_" x="18.1" y="24.9" transform="matrix(0.422 -0.9066 0.9066 0.422 -39.3049 187.995)" width="219.3" height="199.8"/>
			</defs>
			<clipPath id="SVGID_00000164479920914626743190000001795430553327575460_">
				<use xlink:href="#SVGID_00000114047035560489976740000010465470670273486980_"  style="overflow:visible;"/>
			</clipPath>
			<g style="clip-path:url(#SVGID_00000164479920914626743190000001795430553327575460_);">
				<g>
					<defs>
						
							<rect id="SVGID_00000148631266209291664950000014656614406275091372_" x="18.1" y="24.9" transform="matrix(0.422 -0.9066 0.9066 0.422 -39.3049 187.995)" width="219.3" height="199.8"/>
					</defs>
					<clipPath id="SVGID_00000179625790135607085040000011978984239821225913_">
						<use xlink:href="#SVGID_00000148631266209291664950000014656614406275091372_"  style="overflow:visible;"/>
					</clipPath>
					<g style="clip-path:url(#SVGID_00000179625790135607085040000011978984239821225913_);">
						<path class="st3" d="M214.8,67c-0.3,1.4-1,2.7-2,3.8c1.6-10.5-14.6-24.7-30.3-30.1c-9.7-3.3-17-2.5-22.1,0.8
							c4.7-4.7,12.3-6.6,23.2-3.6C199.9,42.5,217.4,56.5,214.8,67z M155.8,42.6c-1.7-0.5-3.5-0.2-5,0.5c-5.2-1.5-10.5-2.5-16-3.1
							C86,35.3,42.7,70.9,38,119.5c-1.1,11.8,0.1,23.3,3.3,34c1.3-0.5,2.7-0.7,4.1-0.6c0.9,0.1,1.8,0.3,2.6,0.7l15.4,6.7
							c-5.4-11.8-7.9-25.1-6.6-38.9c4-41.8,41.2-72.3,83-68.2c2.6,0.3,5.2,0.6,7.7,1.2c0.9,1.5,2.4,2.7,4.3,3.2
							c0.3,9.5,6.5,17.9,20.8,21.7c18.1,4.7,42.2,0.2,45.5-12.3c3.2-12.5-15.7-28.2-33.7-33C170.2,30.2,160.7,34.5,155.8,42.6"/>
					</g>
				</g>
			</g>
		</g>
	</g>
</g>
<g>
	<defs>
		<rect id="SVGID_00000021819728833810851040000000607716221848262832_" x="24" y="81.3" width="192" height="138.7"/>
	</defs>
	<clipPath id="SVGID_00000039097187779541710160000007661857847153794190_">
		<use xlink:href="#SVGID_00000021819728833810851040000000607716221848262832_"  style="overflow:visible;"/>
	</clipPath>
	<g style="clip-path:url(#SVGID_00000039097187779541710160000007661857847153794190_);">
		<g>
			<defs>
				
					<rect id="SVGID_00000077312045640942739380000012356654356221863311_" x="18.1" y="24.9" transform="matrix(0.422 -0.9066 0.9066 0.422 -39.3049 187.995)" width="219.3" height="199.8"/>
			</defs>
			<clipPath id="SVGID_00000087385338168832343320000006358239989536195237_">
				<use xlink:href="#SVGID_00000077312045640942739380000012356654356221863311_"  style="overflow:visible;"/>
			</clipPath>
			<g style="clip-path:url(#SVGID_00000087385338168832343320000006358239989536195237_);">
				<g>
					<defs>
						
							<rect id="SVGID_00000098905397460915218760000011137327060727864210_" x="18.1" y="24.9" transform="matrix(0.422 -0.9066 0.9066 0.422 -39.3049 187.995)" width="219.3" height="199.8"/>
					</defs>
					<clipPath id="SVGID_00000160871301326340537000000009527297924636299692_">
						<use xlink:href="#SVGID_00000098905397460915218760000011137327060727864210_"  style="overflow:visible;"/>
					</clipPath>
					<g style="clip-path:url(#SVGID_00000160871301326340537000000009527297924636299692_);">
						<path class="st3" d="M69.6,214.8L30.1,198c-2.3-1-3.5-3.6-2.6-5.9c0.4-1.1,1.3-2,2.2-2.4c0,0-2.3,3.8,2.4,6l39.2,17.6
							c5.2,2.4,11,1.8,15.6-0.9C82.3,216.2,75.6,217.4,69.6,214.8z M204.6,169.8 M196.8,169.8c-14.9,23.3-42,37.5-71.5,34.6
							c-8.6-0.8-16.7-3.1-24.2-6.5c-0.5-0.6-1.1-1-1.9-1.3c1.7-9.1-3-18.5-11.9-22.3l-40.6-17.8c-2.8-1.2-6.1,0.1-7.3,3
							c-1.1,2.8,0.3,5.9,3,7.1l25.4,11.1c1.8,0.8,2.6,2.9,1.7,4.7c-0.8,1.7-2.9,2.4-4.6,1.6l-25.4-11.1c-2.8-1.2-6.1,0.1-7.3,3
							c-1.1,2.8,0.3,5.9,3,7.1l25.4,11.1c1.8,0.8,2.6,2.9,1.7,4.7c-0.8,1.7-2.9,2.4-4.6,1.6l-25.4-11.1c-2.8-1.2-6.1,0.1-7.3,3
							c-1.1,2.8,0.3,5.9,3,7.1l40.5,17.7c8.8,3.9,18.9,1,24.4-6.4c0.7,0.3,1.5,0.5,2.2,0.5c7.1,2.6,14.5,4.4,22.4,5.2
							c36.8,3.6,70.5-15.8,86.8-46.5 M196.8,169.8"/>
					</g>
				</g>
			</g>
		</g>
	</g>
</g>
<g>
	<g transform="translate(65.105635, 108.871783)">
		<g>
			<path class="st3" d="M42.2,37.4c12.3,0,19.9-5.9,20.1-14.8c0.1-6.9-4.1-10.9-9.6-13.8c-6.2-3.1-11.3-3.9-11.3-7.3
				c0-1.6,1.6-2.4,4.1-2.4c3.2,0,5.6,1.4,7.5,4.1L63-4c-3.3-6.2-9.6-9.3-18.2-9.3c-11.1,0-17.5,5.5-17.8,14.4
				c-0.2,6.5,2.4,10.8,8.5,14c5.7,3,12.3,3.8,12.3,6.7c0,2-2.1,3.1-5.4,3c-4.2-0.1-7.8-2.1-10.4-5.7l-9.6,8.5
				C26.3,34.4,32.8,37.4,42.2,37.4z"/>
		</g>
	</g>
</g>
<g>
	<g transform="translate(97.07988, 108.871783)">
		<g>
			<path class="st3" d="M29.3,50.6h14.6l2.2-14c2.1,0.6,4.3,0.9,6.5,0.9c3.1,0,6-0.7,8.5-2c2,0.4,3.8,0.6,5.4,0.6
				c6.7,0.1,11.7-3,16.6-9.6l-3.4-4.2c-2.2,3.1-4.8,5.6-7.8,6.7c-1.3,0.5-2.8,0.7-4.3,0.6c2.7-3.9,4.2-9,4.3-14.5
				c0.1-8.3-3.3-12-9.2-12c-3.8,0-8.2,1.7-12,4.6L51.5,3L36.8,4.1L29.3,50.6z M51.6,26.7c-1.3,0-2.6-0.1-3.8-0.5l1.7-10.3
				c1.7-1.4,3.4-2,4.7-2c2,0,2.8,1.4,2.8,4.6C57,23.6,54.8,26.6,51.6,26.7z"/>
		</g>
	</g>
</g>
<g>
	<g transform="translate(131.659839, 108.871783)">
		<g>
			<path class="st3" d="M88.5,22.2c-2.2,3-4.7,5.5-7.7,6.7c-0.9,0.4-1.8,0.5-2.8,0.6c2.5-3.3,3.9-7.4,4-12.2
				c0-9.1-5.6-14.3-15.8-14.3c-12.4,0-20.9,8.2-21.1,20.2c0,9.2,5.6,14.1,15.6,14.1c3.5,0,6.7-0.7,9.6-1.9c4.2,1,7.7,0.7,10.6-0.2
				c4.5-1.5,7.8-4.6,10.9-8.8L88.5,22.2z M62.3,26.6c-1.5,0-2.3-1.2-2.3-3.6c0-5.1,2.2-9,5-9c1.6,0,2.4,1.2,2.4,3.6
				C67.4,22.7,65.2,26.6,62.3,26.6z"/>
		</g>
	</g>
</g>
<g>
	<g transform="translate(164.12266, 108.871783)">
		<g>
			<path class="st3" d="M101.6,22.2c-2,2.9-5.2,5.1-7.5,5.1c-1.7,0-2.2-1.2-1.6-4.6l1.5-9.1C95.2,6.8,92.3,3,86,3
				c-3.9,0-7.8,1.4-13.1,4.7L73.6,3L58.8,4.1l-5.1,32.2h14.6l3.3-20.7c2-1.2,3.7-1.8,5.1-1.8c1.9,0,2.5,1.2,2.1,3.6l-1.4,9.1
				c-1.2,7.3,1.7,10.9,8.9,10.9c7,0,12.9-3.4,18.7-10.9L101.6,22.2z"/>
		</g>
	</g>
</g>
<g>
	<g transform="translate(198.268335, 108.871783)">
		<g>
			<path class="st3" d="M93.5,22.2c-2.1,3-5.2,5-8.3,5.1c-3.1,0.1-3.8-1.5-2.8-7.6l1.2-7.4h6.1l1.3-8.3h-6.1l2-12.2L72-7L70.3,4.1
				H66l-1.3,8.3H69L67.5,22c-1.7,11.2,0.9,15.4,9.7,15.4c7.7,0,13.9-3.4,19.8-10.9L93.5,22.2z"/>
		</g>
	</g>
</g>
<g>
	<g transform="translate(217.811172, 108.871783)">
		<g>
			<path class="st3" d="M85.5,0c4.8,0,8.2-3.3,8.2-8c0-4.3-3-7.3-7.5-7.3c-4.9,0-8.5,3.4-8.5,8C77.7-2.9,80.9,0,85.5,0z M99.7,22.2
				c-2.1,3-5.2,5-8.1,5.1c-3.1,0.1-3.7-1.5-2.8-7.6L91.6,3L76.8,4.1L74,22c-1.7,11.2,0.9,15.4,9.6,15.4c7.5,0,13.7-3.4,19.5-10.9
				L99.7,22.2z"/>
		</g>
	</g>
</g>
<g>
	<g transform="translate(237.124447, 108.871783)">
		<g>
			<path class="st3" d="M101.3,37.4c6.9,0,12.7-2,17.9-6L115,19.3c-4,3.4-8.2,4.8-12,4.8c-5,0-6.5-2.5-6.2-9C97.4,6,101.6,0,107.9,0
				c2.9,0,4.9,0.7,6.6,4.4L125.2-3c-3-6.9-9-10.3-17.3-10.3c-15.1,0-26,11.9-26.6,28.9C80.8,29.7,87.9,37.4,101.3,37.4z"/>
		</g>
	</g>
</g>
<g>
	<g transform="translate(269.532976, 108.871783)">
		<g>
			<path class="st3" d="M120.8,37.4c7,0,12.9-3.4,18.7-10.9l-3.4-4.2c-2,2.9-5.2,5.1-7.5,5.1c-1.7,0-2.2-1.2-1.6-4.6l1.5-9.1
				c1.2-6.9-1.7-10.6-8.2-10.6c-3.8,0-7.6,1.3-12.2,4.1l3.5-22.6l-14.8,1.1l-8,50.7h14.7l3.3-21.1c1.7-0.9,3.1-1.4,4.3-1.4
				c1.8,0,2.5,1.2,2.1,3.6l-1.4,9.1C110.8,33.8,113.7,37.4,120.8,37.4z"/>
		</g>
	</g>
</g>
<g>
	<g transform="translate(303.190074, 108.871783)">
		<g>
			<path class="st3" d="M138.8,22.2c-2.5,3.4-7.9,5.8-13,5.8c-2.4,0-4.3-0.6-5.7-1.6c9.4-1.2,15.2-6,15.2-12.9
				C135.3,7,130.2,3,121.8,3c-11.4,0-19.4,7.7-19.4,18.9c0,9.9,6.3,15.4,17.6,15.4c9.3,0,16.8-3.6,22.2-10.9L138.8,22.2z
				 M121.3,13.2c1.4,0,2.1,0.7,2.1,2.3c0,2.5-2.8,4.6-6.2,5C117.2,16.1,118.8,13.2,121.3,13.2z"/>
		</g>
	</g>
</g>
<g>
	<g transform="translate(330.495748, 108.871783)">
		<g>
			<path class="st3" d="M100.5,51.6c11.9,0.9,19.1-3.3,22.5-13.4c9.3-1.9,14.8-5.2,19.7-11.8l-3.4-4.2c-3.5,4.9-9,7.2-14.6,8.2
				l2.9-18.1h8.3l1.4-8.3h-8.4l0.3-2c0.8-4.1,2.8-5.6,5.6-5.7c1.4-0.1,2.9,0.2,4.6,0.8l2.8-10.9c-3.2-1.1-7-1.7-10.4-1.7
				c-10,0-14.5,4.8-17.2,17.7l-0.3,1.8h-3.9l-1.3,8.3h3.8l-3.3,20.3c-0.7,4.7-3.3,6.7-8,6.7L100.5,51.6z"/>
		</g>
	</g>
</g>
</svg>
